<svg width="70" height="70" viewBox="0 0 70 70" fill="none" xmlns="http://www.w3.org/2000/svg">
<path d="M60.0909 31.8636H69.5V38.1364H60.0909V31.8636ZM0.5 31.8636H9.90909V38.1364H0.5V31.8636ZM38.1364 0.5V9.90909H31.8636V0.5H38.1364ZM12.7945 8.34091L19.475 15.0527L15.0214 19.475L8.34091 12.8259L12.7945 8.34091ZM50.525 15.0214L57.1741 8.34091L61.6591 12.8259L54.9786 19.475L50.525 15.0214ZM35 16.1818C39.9909 16.1818 44.7774 18.1644 48.3065 21.6935C51.8356 25.2226 53.8182 30.0091 53.8182 35C53.8182 41.9627 50.0232 48.0473 44.4091 51.3091V56.9545C44.4091 57.7864 44.0787 58.5841 43.4905 59.1723C42.9023 59.7605 42.1045 60.0909 41.2727 60.0909H28.7273C27.8955 60.0909 27.0977 59.7605 26.5095 59.1723C25.9213 58.5841 25.5909 57.7864 25.5909 56.9545V51.3091C19.9768 48.0473 16.1818 41.9627 16.1818 35C16.1818 30.0091 18.1644 25.2226 21.6935 21.6935C25.2226 18.1644 30.0091 16.1818 35 16.1818ZM41.2727 63.2273V66.3636C41.2727 67.1955 40.9423 67.9932 40.3541 68.5814C39.7659 69.1696 38.9682 69.5 38.1364 69.5H31.8636C31.0318 69.5 30.2341 69.1696 29.6459 68.5814C29.0577 67.9932 28.7273 67.1955 28.7273 66.3636V63.2273H41.2727Z" fill="black"/>
</svg>
