<svg width="44" height="70" viewBox="0 0 44 70" fill="none" xmlns="http://www.w3.org/2000/svg">
<path d="M18.8571 16.1429L18.8571 35H0L0 16.1429H6.28571L6.28571 3.57145C6.28571 1.84287 7.7 0.428589 9.42857 0.428589C11.1571 0.428589 12.5714 1.84287 12.5714 3.57145L12.5714 16.1429L18.8571 16.1429ZM0 41.2857L0 47.5714C0 51.6571 2.64 55.1143 6.28571 56.4343L6.28571 69.5714H12.5714L12.5714 56.4343C16.2171 55.1143 18.8571 51.6571 18.8571 47.5714V41.2857H0ZM37.7143 16.1429V3.57145C37.7143 1.84287 36.3 0.428589 34.5714 0.428589C32.8429 0.428589 31.4286 1.84287 31.4286 3.57145L31.4286 16.1429L25.1429 16.1429L25.1429 35H44L44 16.1429H37.7143ZM25.1429 41.2857V47.5714C25.1429 51.6571 27.7829 55.1143 31.4286 56.4343V69.5714H37.7143L37.7143 56.4343C41.36 55.1143 44 51.6571 44 47.5714V41.2857H25.1429Z" fill="black"/>
</svg>
