<svg width="68" height="68" viewBox="0 0 68 68" fill="none" xmlns="http://www.w3.org/2000/svg">
<path d="M37.7222 0.5H30.2778V37.7222H37.7222V0.5ZM55.7006 8.57722L50.415 13.8628C56.2961 18.59 60.0556 25.8483 60.0556 34C60.0556 48.405 48.405 60.0556 34 60.0556C19.595 60.0556 7.94444 48.405 7.94444 34C7.94444 25.8483 11.7039 18.59 17.5478 13.8256L12.2994 8.57722C5.07833 14.7189 0.5 23.8011 0.5 34C0.5 52.4994 15.5006 67.5 34 67.5C52.4994 67.5 67.5 52.4994 67.5 34C67.5 23.8011 62.9217 14.7189 55.7006 8.57722Z" fill="black"/>
</svg>
