<svg width="66" height="66" viewBox="0 0 66 66" fill="none" xmlns="http://www.w3.org/2000/svg">
<path d="M57.5354 36.267L57.5024 36.333C57.6344 35.244 57.7664 34.122 57.7664 33C57.7664 31.878 57.6674 30.822 57.5354 29.733L57.5684 29.799L65.6204 23.463L57.6014 9.537L48.1304 13.365L48.1634 13.398C46.4474 12.078 44.5664 10.956 42.5204 10.098H42.5534L41.0354 0H24.9644L23.5124 10.131H23.5454C21.4994 10.989 19.6184 12.111 17.9024 13.431L17.9354 13.398L8.4314 9.537L0.379395 23.463L8.4314 29.799L8.4644 29.733C8.3324 30.822 8.2334 31.878 8.2334 33C8.2334 34.122 8.3324 35.244 8.4974 36.333L8.4644 36.267L1.5344 41.712L0.445395 42.57L8.4644 56.43L17.9684 52.635L17.9024 52.503C19.6514 53.856 21.5324 54.978 23.6114 55.836H23.5124L24.9974 66H41.0024C41.0024 66 41.1014 65.406 41.2004 64.614L42.4544 55.869H42.4214C44.4674 55.011 46.3814 53.889 48.1304 52.536L48.0644 52.668L57.5684 56.463L65.5874 42.603C65.5874 42.603 65.1254 42.207 64.4984 41.745L57.5354 36.267ZM32.9834 44.55C26.6144 44.55 21.4334 39.369 21.4334 33C21.4334 26.631 26.6144 21.45 32.9834 21.45C39.3524 21.45 44.5334 26.631 44.5334 33C44.5334 39.369 39.3524 44.55 32.9834 44.55Z" fill="black"/>
</svg>
