<svg width="60" height="60" viewBox="0 0 60 60" fill="none" xmlns="http://www.w3.org/2000/svg">
<path d="M38.7728 20.247H20.4395V39.7544H38.7728V20.247Z" fill="black"/>
<path d="M30 4.28571C35.0858 4.28571 40.0574 5.79383 44.2861 8.61935C48.5148 11.4449 51.8106 15.4609 53.7569 20.1596C55.7032 24.8582 56.2124 30.0285 55.2202 35.0166C54.228 40.0047 51.7789 44.5865 48.1827 48.1827C44.5865 51.7789 40.0047 54.228 35.0166 55.2202C30.0285 56.2124 24.8582 55.7031 20.1596 53.7569C15.4609 51.8106 11.4449 48.5148 8.61936 44.2861C5.79384 40.0574 4.28573 35.0858 4.28573 30C4.28573 23.1801 6.9949 16.6396 11.8173 11.8173C16.6396 6.99489 23.1802 4.28571 30 4.28571ZM30 0C24.0666 0 18.2664 1.75947 13.3329 5.05591C8.39943 8.35235 4.55426 13.0377 2.28363 18.5195C0.0129985 24.0013 -0.581101 30.0333 0.576455 35.8527C1.73401 41.6721 4.59123 47.0176 8.78681 51.2132C12.9824 55.4088 18.3279 58.266 24.1473 59.4235C29.9667 60.5811 35.9987 59.987 41.4805 57.7164C46.9623 55.4457 51.6476 51.6006 54.9441 46.6671C58.2405 41.7336 60 35.9334 60 30C60 22.0435 56.8393 14.4129 51.2132 8.78679C45.5871 3.1607 37.9565 0 30 0Z" fill="black"/>
</svg>
