<svg width="48" height="70" viewBox="0 0 48 70" fill="none" xmlns="http://www.w3.org/2000/svg">
<path d="M34.0897 20.0283V33.0472H37.3444V39.5566H27.5803V13.5189H34.0897L24.3256 0.5L14.5614 13.5189H21.0708V39.5566H11.3067V32.8193C13.585 31.6151 15.2124 29.3042 15.2124 26.5377C15.2124 24.6387 14.458 22.8174 13.1151 21.4746C11.7723 20.1318 9.95103 19.3774 8.05198 19.3774C4.08122 19.3774 0.891602 22.567 0.891602 26.5377C0.891602 29.3042 2.51896 31.6151 4.79726 32.8193V39.5566C4.79726 41.283 5.48307 42.9387 6.70383 44.1595C7.92458 45.3802 9.58029 46.066 11.3067 46.066H21.0708V55.9929C18.76 57.1646 17.1652 59.5731 17.1652 62.3396C17.1652 64.2387 17.9196 66.0599 19.2624 67.4028C20.6052 68.7456 22.4265 69.5 24.3256 69.5C26.2246 69.5 28.0459 68.7456 29.3887 67.4028C30.7315 66.0599 31.4859 64.2387 31.4859 62.3396C31.4859 59.5731 29.8911 57.1646 27.5803 55.9929V46.066H37.3444C39.0708 46.066 40.7265 45.3802 41.9473 44.1595C43.168 42.9387 43.8539 41.283 43.8539 39.5566V33.0472H47.1086V20.0283H34.0897Z" fill="black"/>
</svg>
