<svg width="78" height="58" viewBox="0 0 78 58" fill="none" xmlns="http://www.w3.org/2000/svg">
<path d="M70.2201 37.0617V5.99582C70.2186 4.40611 69.603 2.88198 68.5084 1.75789C67.4138 0.633797 65.9297 0.00158732 64.3817 0H5.99737C4.44939 0.00158732 2.96526 0.633797 1.87068 1.75789C0.776097 2.88198 0.160481 4.40611 0.158936 5.99582V47.9665C0.160481 49.5562 0.776097 51.0804 1.87068 52.2044C2.96526 53.3285 4.44939 53.9607 5.99737 53.9623H23.5267V47.9665H5.99737V5.99582H64.3817V37.0617H70.2201Z" fill="black"/>
<path d="M40.0219 43.8166L32.3016 47.75C29.9678 48.939 29.9788 52.2771 32.3204 53.4507L40.7215 57.6615C41.1657 57.8841 41.6557 58 42.1525 58H74.6472C76.411 58 77.8409 56.5701 77.8409 54.8063V46.6622C77.8409 44.8984 76.411 43.4686 74.6472 43.4686H41.4717C40.9677 43.4686 40.4709 43.5878 40.0219 43.8166Z" fill="black"/>
</svg>
