<svg width="60" height="60" viewBox="0 0 60 60" fill="none" xmlns="http://www.w3.org/2000/svg">
<path d="M52.5915 42.1142C54.9403 41.1413 57.4577 40.6406 60 40.6406V33.4406C56.5122 33.4406 53.0585 34.1275 49.8362 35.4623C46.6138 36.797 43.6859 38.7533 41.2197 41.2196C38.7534 43.6859 36.7971 46.6138 35.4623 49.8361C34.1276 53.0584 33.4406 56.5121 33.4406 59.9999H40.6406C40.6406 57.4576 41.1414 54.9402 42.1143 52.5914C43.0872 50.2426 44.5132 48.1085 46.3109 46.3108C48.1085 44.5131 50.2427 43.0871 52.5915 42.1142Z" fill="black"/>
<path d="M60.0001 54.825C60.0001 57.683 57.6832 60 54.8251 60C51.9671 60 49.6501 57.683 49.6501 54.825C49.6501 51.9669 51.9671 49.65 54.8251 49.65C57.6832 49.65 60.0001 51.9669 60.0001 54.825Z" fill="black"/>
<path d="M39.7943 11.2192C46.2003 8.56571 53.0662 7.2 60 7.2V0C52.1207 0 44.3185 1.55195 37.039 4.56723C29.7595 7.58251 23.1451 12.0021 17.5736 17.5736C12.0021 23.1451 7.58252 29.7595 4.56723 37.039C1.55195 44.3185 0 52.1207 0 60H7.2C7.2 53.0662 8.56571 46.2003 11.2192 39.7943C13.8726 33.3883 17.7618 27.5677 22.6648 22.6648C27.5677 17.7618 33.3883 13.8726 39.7943 11.2192Z" fill="black"/>
<path d="M46.1086 26.4632C50.5127 24.6389 55.233 23.7 60 23.7V16.5C54.2875 16.5 48.6309 17.6252 43.3533 19.8112C38.0756 21.9973 33.2802 25.2015 29.2408 29.2409C25.2015 33.2802 21.9973 38.0756 19.8112 43.3533C17.6252 48.6309 16.5 54.2875 16.5 60H23.7C23.7 55.233 24.6389 50.5127 26.4632 46.1086C28.2874 41.7045 30.9613 37.7028 34.332 34.332C37.7028 30.9613 41.7045 28.2874 46.1086 26.4632Z" fill="black"/>
</svg>
